<?xml version="1.0" encoding="utf-8"?><!-- Uploaded to: SVG Repo, www.svgrepo.com, Generator: SVG Repo Mixer Tools -->
<svg fill="#000000" width="800px" height="800px" viewBox="0 0 24 24" id="world" xmlns="http://www.w3.org/2000/svg" class="icon multi-color"><title style="stroke-width: 2;">world</title><path id="primary-stroke" d="M21,12a9,9,0,1,1-9-9A9,9,0,0,1,21,12Zm-1.8,5.4a9.7,9.7,0,0,0-4.42-2.1,13,13,0,0,0-5.56,0A9.7,9.7,0,0,0,4.8,17.4m0-10.8A9.7,9.7,0,0,0,9.22,8.7,12.53,12.53,0,0,0,12,9a12.53,12.53,0,0,0,2.78-.3A9.7,9.7,0,0,0,19.2,6.6" style="fill: none; stroke: rgb(0, 0, 0); stroke-linecap: round; stroke-linejoin: round; stroke-width: 2;"></path><ellipse id="secondary-stroke" cx="12" cy="12" rx="3" ry="9" style="fill: none; stroke: rgb(44, 169, 188); stroke-linecap: round; stroke-linejoin: round; stroke-width: 2;"></ellipse></svg>